<svg xmlns="http://www.w3.org/2000/svg" viewBox="0 0 512 512">
  <defs>
    <linearGradient id="grad" x1="0%" y1="0%" x2="100%" y2="100%">
      <stop offset="0%" style="stop-color:#667eea;stop-opacity:1" />
      <stop offset="100%" style="stop-color:#764ba2;stop-opacity:1" />
    </linearGradient>
  </defs>

  <!-- Background -->
  <rect width="512" height="512" rx="100" fill="url(#grad)"/>

  <!-- Calculator icon -->
  <rect x="120" y="100" width="272" height="312" rx="20" fill="white" opacity="0.95"/>

  <!-- Display screen -->
  <rect x="145" y="125" width="222" height="70" rx="10" fill="#1a1a2e"/>
  <text x="345" y="175" font-family="Arial, sans-serif" font-size="40" fill="#4ade80" text-anchor="end" font-weight="bold">2569</text>

  <!-- Calculator buttons -->
  <!-- Row 1 -->
  <rect x="145" y="215" width="50" height="40" rx="8" fill="#667eea"/>
  <rect x="205" y="215" width="50" height="40" rx="8" fill="#667eea"/>
  <rect x="265" y="215" width="50" height="40" rx="8" fill="#667eea"/>
  <rect x="325" y="215" width="42" height="40" rx="8" fill="#f59e0b"/>

  <!-- Row 2 -->
  <rect x="145" y="265" width="50" height="40" rx="8" fill="#e5e7eb"/>
  <rect x="205" y="265" width="50" height="40" rx="8" fill="#e5e7eb"/>
  <rect x="265" y="265" width="50" height="40" rx="8" fill="#e5e7eb"/>
  <rect x="325" y="265" width="42" height="40" rx="8" fill="#667eea"/>

  <!-- Row 3 -->
  <rect x="145" y="315" width="50" height="40" rx="8" fill="#e5e7eb"/>
  <rect x="205" y="315" width="50" height="40" rx="8" fill="#e5e7eb"/>
  <rect x="265" y="315" width="50" height="40" rx="8" fill="#e5e7eb"/>
  <rect x="325" y="315" width="42" height="40" rx="8" fill="#667eea"/>

  <!-- Row 4 -->
  <rect x="145" y="365" width="110" height="40" rx="8" fill="#e5e7eb"/>
  <rect x="265" y="365" width="50" height="40" rx="8" fill="#e5e7eb"/>
  <rect x="325" y="365" width="42" height="40" rx="8" fill="#4ade80"/>

  <!-- Thai Baht symbol -->
  <text x="256" y="480" font-family="Arial, sans-serif" font-size="36" fill="white" text-anchor="middle" font-weight="bold">฿ TAX</text>
</svg>
